<?xml version="1.0" encoding="UTF-8"?>
<svg version="1.1" xmlns="http://www.w3.org/2000/svg" width="128" height="45">
<path d="M0 0 C1.65 0 3.3 0 5 0 C5 7.92 5 15.84 5 24 C3.35 24 1.7 24 0 24 C0 16.08 0 8.16 0 0 Z " fill="#FFFFFF" transform="translate(22,10)"/>
<path d="M0 0 C1.65 0 3.3 0 5 0 C5 7.92 5 15.84 5 24 C3.35 24 1.7 24 0 24 C0 16.08 0 8.16 0 0 Z " fill="#FFFFFF" transform="translate(7,10)"/>
<path d="M0 0 C1.32 0 2.64 0 4 0 C4 7.59 4 15.18 4 23 C2.35 23 0.7 23 -1 23 C-1.02887512 19.35418313 -1.04675585 15.70839537 -1.0625 12.0625 C-1.07087891 11.02158203 -1.07925781 9.98066406 -1.08789062 8.90820312 C-1.09272461 7.42416992 -1.09272461 7.42416992 -1.09765625 5.91015625 C-1.10289307 4.99371338 -1.10812988 4.07727051 -1.11352539 3.13305664 C-1 1 -1 1 0 0 Z " fill="#FEFEFE" transform="translate(30,22)"/>
<path d="M0 0 C1.32 0 2.64 0 4 0 C4 7.92 4 15.84 4 24 C2.68 24 1.36 24 0 24 C0 16.08 0 8.16 0 0 Z " fill="#FFFFFF" transform="translate(15,0)"/>
<path d="M0 0 C6 0 6 0 9 2 C9.31845551 5.10494126 8.99424641 7.01726077 8 10 C8.7425 10.680625 8.7425 10.680625 9.5 11.375 C11 13 11 13 11 15 C8.11424181 14.60196439 7.17810487 14.20990931 5.25 11.9375 C4.8375 11.298125 4.425 10.65875 4 10 C3.67 11.65 3.34 13.3 3 15 C2.01 15 1.02 15 0 15 C0 10.05 0 5.1 0 0 Z M3 2 C3 3.65 3 5.3 3 7 C4.32 6.67 5.64 6.34 7 6 C7 5.01 7 4.02 7 3 C5.68 2.67 4.36 2.34 3 2 Z " fill="#FEFEFE" transform="translate(61,29)"/>
<path d="M0 0 C6.72 0.72 6.72 0.72 8 2 C8.1613058 5.06481021 7.98150241 7.05549278 7 10 C7.7425 10.680625 7.7425 10.680625 8.5 11.375 C10 13 10 13 10 15 C7.11424181 14.60196439 6.17810487 14.20990931 4.25 11.9375 C3.8375 11.298125 3.425 10.65875 3 10 C2.67 11.65 2.34 13.3 2 15 C1.01 15 0.02 15 -1 15 C-1.02685412 12.68756208 -1.04632841 10.3750373 -1.0625 8.0625 C-1.07410156 6.77472656 -1.08570312 5.48695312 -1.09765625 4.16015625 C-1 1 -1 1 0 0 Z M2 2 C2 3.65 2 5.3 2 7 C3.32 6.67 4.64 6.34 6 6 C6 5.01 6 4.02 6 3 C4.68 2.67 3.36 2.34 2 2 Z " fill="#FEFEFE" transform="translate(75,29)"/>
<path d="M0 0 C1.32 0 2.64 0 4 0 C4 7.59 4 15.18 4 23 C2.68 23 1.36 23 0 23 C0 15.41 0 7.82 0 0 Z " fill="#FFFFFF" transform="translate(0,22)"/>
<path d="M0 0 C1.9375 1.125 1.9375 1.125 3 3 C3.39385329 6.61032183 3.44081436 9.0693919 1.875 12.375 C-0.74934598 14.64943318 -2.54847562 14.93096951 -6 15 C-10.56521739 12.86956522 -10.56521739 12.86956522 -12 10 C-12.375 6.625 -12.375 6.625 -12 3 C-8.31376997 -1.46815761 -5.41712863 -1.50475795 0 0 Z M-8.875 2.625 C-10.42094088 5.88865297 -10.17712315 7.61577095 -9 11 C-6.31553472 12.74127478 -4.89596603 13.17421562 -1.75 12.5625 C0.34008796 10.98172146 0.34008796 10.98172146 0.9375 7.5625 C1.3047388 4.14019973 1.3047388 4.14019973 -0.125 2.0625 C-3.47787993 0.16253471 -5.92096638 0.06483753 -8.875 2.625 Z " fill="#FFFFFF" transform="translate(124,30)"/>
<path d="M0 0 C7 1 7 1 8.9375 2.125 C10.65036957 5.14771101 10.35727863 7.60585305 10 11 C8.9375 13.4375 8.9375 13.4375 7 15 C4.69 15 2.38 15 0 15 C0 10.05 0 5.1 0 0 Z M2 2 C2 5.63 2 9.26 2 13 C3.65 12.67 5.3 12.34 7 12 C7.33 9.69 7.66 7.38 8 5 C5.32752366 2.65712582 5.32752366 2.65712582 2 2 Z " fill="#FFFFFF" transform="translate(99,29)"/>
<path d="M0 0 C1.98 0 3.96 0 6 0 C8 2 8 2 8.1875 4.5 C8 7 8 7 7 9 C7.39938767 11.09821215 7.39938767 11.09821215 8 13 C8.66 13 9.32 13 10 13 C10 13.66 10 14.32 10 15 C8.125 14.75 8.125 14.75 6 14 C4.875 12 4.875 12 4 10 C3.34 9.67 2.68 9.34 2 9 C2 10.98 2 12.96 2 15 C1.34 15 0.68 15 0 15 C0 10.05 0 5.1 0 0 Z M2 2 C2 3.65 2 5.3 2 7 C3.32 6.67 4.64 6.34 6 6 C5.67 4.68 5.34 3.36 5 2 C4.01 2 3.02 2 2 2 Z " fill="#FEFEFE" transform="translate(61,9)"/>
<path d="M0 0 C2.05078125 0.03255208 4.1015625 0.06510417 6.15234375 0.09765625 C5.82234375 1.08765625 5.49234375 2.07765625 5.15234375 3.09765625 C3.50234375 2.76765625 1.85234375 2.43765625 0.15234375 2.09765625 C0.15234375 3.41765625 0.15234375 4.73765625 0.15234375 6.09765625 C1.47234375 6.09765625 2.79234375 6.09765625 4.15234375 6.09765625 C4.15234375 7.08765625 4.15234375 8.07765625 4.15234375 9.09765625 C2.83234375 8.76765625 1.51234375 8.43765625 0.15234375 8.09765625 C0.15234375 9.74765625 0.15234375 11.39765625 0.15234375 13.09765625 C2.46234375 13.09765625 4.77234375 13.09765625 7.15234375 13.09765625 C6.82234375 13.75765625 6.49234375 14.41765625 6.15234375 15.09765625 C3.18234375 15.09765625 0.21234375 15.09765625 -2.84765625 15.09765625 C-2.87451037 12.78521833 -2.89398466 10.47269355 -2.91015625 8.16015625 C-2.92175781 6.87238281 -2.93335937 5.58460937 -2.9453125 4.2578125 C-2.81833933 0.14896085 -2.81833933 0.14896085 0 0 Z " fill="#FEFEFE" transform="translate(89.84765625,28.90234375)"/>
<path d="M0 0 C0.66 0 1.32 0 2 0 C2.6700834 2.12392506 3.33596797 4.24917524 4 6.375 C4.37125 7.55835938 4.7425 8.74171875 5.125 9.9609375 C6 13 6 13 6 15 C5.01 15 4.02 15 3 15 C3 13.68 3 12.36 3 11 C2.01 11 1.02 11 0 11 C-0.66 12.32 -1.32 13.64 -2 15 C-2.66 15 -3.32 15 -4 15 C-3.52229477 13.06213915 -3.04278429 11.12472326 -2.5625 9.1875 C-2.29566406 8.10855469 -2.02882812 7.02960937 -1.75390625 5.91796875 C-1.23922588 3.9259157 -0.65062825 1.95188476 0 0 Z " fill="#FEFEFE" transform="translate(53,29)"/>
<path d="M0 0 C3.63 0 7.26 0 11 0 C11 0.66 11 1.32 11 2 C9.68 2 8.36 2 7 2 C7 6.29 7 10.58 7 15 C6.34 15 5.68 15 5 15 C5 10.71 5 6.42 5 2 C3.35 1.67 1.7 1.34 0 1 C0 0.67 0 0.34 0 0 Z " fill="#FEFEFE" transform="translate(48,9)"/>
<path d="M0 0 C3.3 0 6.6 0 10 0 C10 0.66 10 1.32 10 2 C8.68 2 7.36 2 6 2 C6 6.29 6 10.58 6 15 C5.34 15 4.68 15 4 15 C4 10.71 4 6.42 4 2 C2.68 2 1.36 2 0 2 C0 1.34 0 0.68 0 0 Z " fill="#FEFEFE" transform="translate(71,9)"/>
</svg>
